<?xml version="1.0" encoding="utf-8"?>
<!-- Generator: Adobe Illustrator 22.1.0, SVG Export Plug-In . SVG Version: 6.00 Build 0)  -->
<svg version="1.1" id="Layer_1" xmlns="http://www.w3.org/2000/svg" xmlns:xlink="http://www.w3.org/1999/xlink" x="0px" y="0px"
	 width="377.8px" height="377px" viewBox="0 0 377.8 377" style="enable-background:new 0 0 377.8 377;" xml:space="preserve">
<style type="text/css">
	.st0{fill:#081A27;}
</style>
<title>TheMix-Logo-Dark</title>
<g id="Layer_2_1_">
	<g id="Layer_1-2">
		<path class="st0" d="M19.6,109.5c-0.8,0.7-0.6,1.2-1.1,2.4c-0.5,0.3-2,2.2-1.7,3.3c0.4-0.7,1-1.6,1.6-2.6
			C19.1,111.6,19.5,110.6,19.6,109.5"/>
		<path class="st0" d="M18.1,116.9c-0.8,1.5-2.3,3.1-1.4,4C17.1,119.7,18.4,117.5,18.1,116.9"/>
		<path class="st0" d="M14,143.4l-1.1,4.4C13.6,148.3,14.6,143.4,14,143.4"/>
		<path class="st0" d="M12.5,140.8c0.2-0.7,0.4-1.9,0.8-1.9c-0.2,0.8,0.5,0.5,0.4,1.2c-0.2,1.2-0.8,0.4-1,1.3
			c0.5,0.3,0.1,1.7,0.4,2.3c0.6-1.3,0.9-2.6,1-4c0.8-0.1,2.6-5.6,1.1-5c-0.5,1.6-0.2,2.2-1,4l-0.9-0.3c1.4-1.2,1.1-5.5,2.7-7.2
			c0.1,1.1-0.4,1.2-0.8,2.4c1.9-0.1,2.6-6.3,1.7-7c0.4-1.3,0.8-2,1.4-1.7c-0.5,1.2-0.6,2.5-0.4,3.7c0.4-2.2,1-4.5,0.6-5.8
			c-0.9,0.9-1.8,1.8-2.5,2.9c-0.4,2.3-0.1,2.8-0.9,5.2c-0.6,1.8-1.9,3.5-2.4,5.2S11.6,140,12.5,140.8"/>
		<path class="st0" d="M17.8,121.3c0.4,0.2-0.4,1.4-0.1,1.6c0.8-1.8,2.9-2.8,3-4.9c-0.4,1.3-0.8,1.7-1.2,1.1
			c0.7-1.5,1.5-2.2,2.3-2.4c-0.4,1.8-1.8,5.4-2.8,5.5c0.8,0-0.1,1.9,0.9,0.9c0.4-1.8,1.7-4.2,2.5-6.7c0.3-0.7,0.3-1.8,0.6-2.6
			c0.3-0.9,1.7-2.6,0.7-2.5c-1.3,2.3-1.3,4-2.6,5l-0.6-0.3c0.4-1.4,0.8-1.1,1.2-2.3c-0.7-0.2-1.5,1.8-2.2,3.5
			C18.9,118.5,18.3,120,17.8,121.3"/>
		<path class="st0" d="M25.5,97.7c-1,1.4-0.7,2.7-0.9,3.1c-0.3,0.6-0.6,0.5-1,1.3c0,0.1,0.3,0.4,0.1,0.7c-0.3,0.9-1.3,1.8-1,2.4
			c0.2-0.3,0.4-0.4,0.6-0.2c0.5-1.5,1.7-2.3,1.9-3.1c0.1-0.4-0.5-0.1-0.1-0.7c0.2-0.4,1.3-0.3,0.9-1.3c-1,1.4-0.5,0-1.2-0.1
			C25.3,99,26.3,97.6,25.5,97.7"/>
		<path class="st0" d="M22.7,112.2c1-1.9,0.9-3.2,2-2.5c1.6-2.4,0.7-2.8,1.4-4.5c0.6,0.2-0.5,2.1,0.8,0.5c0.2-1.4-0.4-0.6-0.3-1.9
			c-0.6,1.1-1.2,2.1-1.9,3.1c0.2,0.4,0.2,0.8,0.2,1.3c-0.5,0.6-1,1.3-1.5,0.9c0.2-0.6,0.5-1.1,0-1.2C22.5,110,21.8,111.8,22.7,112.2
			"/>
		<path class="st0" d="M12.1,147.1c0.4-1.1,1.2-2.5,0.5-3C12.2,145.2,11.4,146.7,12.1,147.1"/>
		<path class="st0" d="M23,118c0.5-1.4,1.8-2.6,1.2-3.4C23.9,115.6,22.6,117.6,23,118"/>
		<path class="st0" d="M10.7,139.2c-0.5-1-1.3,2.9-1,3C10.1,141.2,10.4,140.2,10.7,139.2"/>
		<path class="st0" d="M7.2,160.8c0-1.9,1.1-3.9,0.8-4.6C7.5,157.4,6.5,160.5,7.2,160.8"/>
		<path class="st0" d="M6.2,147.7c-0.1,0.8-0.8,2.6-0.3,2.6C6.4,149.6,7,148.1,6.2,147.7"/>
		<path class="st0" d="M11.1,158.4c-0.2-2.1,1.4-4.3,0.6-5.6C11.5,154.7,10.3,157.9,11.1,158.4"/>
		<path class="st0" d="M8.2,144.4c0.1-0.3,0.3-0.5,0.2,0.1c-0.9,1.8-0.6,3.4-1.6,4.5c0.4,0.8,0.8-0.1,0.8,0.8
			c-0.2,0.5-0.2,2.2-0.5,2.6c-0.1,0.1-0.4-0.2-0.4-0.1c-0.4,1.3-0.5,2.9-1.2,4.6c0.7,0.9,0.5-2.3,1.2-1.3c0.4-2.8,1.2-4.5,1.7-8.2
			c-0.7,0.2-0.2-1.2-0.3-1.7c0.3,1.2,1.6-0.2,1.3-1.3c-0.7,1.4,0-1.9-0.5-1.8C8.8,143.1,7.6,143.7,8.2,144.4"/>
		<path class="st0" d="M11.7,134.5c-0.2,0.4-0.3,1-0.5,0.9c0.2-1.2,0.6-3.6,1.4-4.5c-0.8-0.1-1.3,2-1.9,3.8c0.6,0.4,0.3,1.8,0.3,2.9
			C11.6,136.7,11.9,135.6,11.7,134.5"/>
		<path class="st0" d="M11.1,144.2c-0.4,1.1-1,2-0.4,2.6C11.2,146.2,11.7,144.4,11.1,144.2"/>
		<path class="st0" d="M10.7,137c-0.5-0.5-2.1,3-1.1,2.9C9.6,138,10.1,138.8,10.7,137"/>
		<path class="st0" d="M13.8,128.7c-0.6-0.5-1.2,1.5-1.3,0.1l-0.6,1.5C12.6,130.1,13.3,130.2,13.8,128.7"/>
		<path class="st0" d="M23.5,101.4c-0.6-0.4-1.4,1.1-2.1,2.4C21.9,104.7,22.8,101.5,23.5,101.4"/>
		<path class="st0" d="M161.7,372c-0.5-0.2,0.4-0.5-0.9-0.6c-0.8-0.1-0.5,0.5-1.6,0.2c0.3-0.3-0.4-1.3,0.8-1.1l4.1,0.6
			c0-0.5,0.7-0.4,0.7-0.9c-6.2-1-7-1.1-13.1-2.4c-1.5,0.5-2.8-0.4-4.1-0.7c-0.6-0.2-1.1,0-2.1-0.3s-1-0.5-1.9-0.7
			c-1.8-0.4-3.7-0.9-5.6-1.4s-3.9-1-5.8-1.6c-3.1-1.1-6-2.3-9.2-3.4c-1.5-0.5-2.9-0.8-4.5-1.4c-5.4-2.2-10.7-4.8-15.8-7.7
			c-0.8-0.5-2-0.8-2.8-1.3c-1.8-1-3.4-2.2-5.1-3.3s-3.3-2.2-4.9-3.2c-1.8-1.1-3.7-2.5-5.5-3.8l-1.7-0.4c0.2-0.2-0.3-0.6,0-0.9
			c-1.4-1-3.3-2.4-5.3-4s-4-3.4-6-5c-1.2,0.5,1.6,0.8,1.3,1.7c-1-0.2-3.9-3-2.1-2.3c-3-2.3-6.4-6-9-7.8c0.2-0.4-0.2-1-1.1-1.8
			c0.5,1.5-1.6,0.2-2-1c0.5,0.4,1,1.1,1.3,0.9c-1.4-1.5-2.7-3.1-3.9-4.8c-2.1-2.5-3.1-2.3-4.8-4.7c-1,0.1,0.8,1.6,0.6,2.1
			c-1.8-1.9-3.3-4.1-4.2-6.5c-2-2.1-4.1-5.9-5.8-7.2c0.2,0.4,0.6,0.8,0.4,1c-0.9-1-1.6-2.2-1.9-3.5c-0.1,1-1.8-1.5-1.3-1.6
			c0.1,0.4,1.1,1.4,1.1,1.2c-0.3-1-3.1-4.8-3.8-4.9c0.2-1.4-1.6-3.2-2.8-5c-0.5-0.8-0.4-1.1-0.9-1.9c-1.8-2.9-3.9-6.9-5-9
			c-1.6-3.6-3.1-6.6-4.4-9.6s-2.6-5.7-3.7-8.7c-0.4-1.1-0.2-2.6-1.3-2.8c0.2,0.6,0.5,1.4,0.3,1.5c-0.8-1.7-0.2-2-0.8-3.5
			c-1-0.6-0.7-1.2-1.2-2.9c-0.5-1.1-0.8-2.3-0.9-3.5c-0.2-0.6-0.5-0.4-0.8-0.9s-0.8-1.9-1.3-3.1s-0.8-2.4-0.9-2.8
			c-0.2-0.8,0.1-1.3-0.1-2.1s-0.7-1.7-0.9-2.4c-0.4-1.4-0.3-2.5-0.7-4.1c-0.4-1.8-1-4.1-1.5-6s-0.7-3.9-1-6
			c-0.1-1.1-0.2-2.1-0.4-3.2s-0.1-2.1-0.1-3.1c-0.2-0.8-0.8-0.4-0.7-2c0.6,1,0.2-0.1,0.7-0.6c-0.4-2.9-0.7-5.7-0.8-8.6
			c-0.1-1.4-0.1-2.8-0.1-4.2s0.1-3,0.3-4.6c-0.4-0.9-1.5-2.9-0.7-4.6c0.1,1-0.3,3.1,0.5,2.6c0.2-2,0.4-4.5,0.5-7.1
			c0-2.6,0.2-5.2,0.5-7.7c0.1-0.7-0.4-0.5-0.4-1.1c0.3-1.4,0.8-2.1,1-3.5c0.1-2.9,0.5-5.8,1.2-8.6c-0.6,0.1-0.7-2.5,0-3.1
			c-0.1,0.8-0.3,1.8,0.2,1.6c0.6-1,0.1-2.1,0.8-4c-1,1.3-0.9-1.8-0.2-2.7c0.6-0.1-0.6,2.3,0.4,1.7c0.5-2.7,0.4-2.7,1.1-4.4
			c-0.3-1,0.1-2.9-0.6-3.4c-0.2,1-0.6,0.9-0.8,1.4c0.8-0.4,0.7-0.1,0.6,1.2c-0.8-0.5-1.2,0.9-1.6,2.2c-0.1,0.7,0.3,0.6,0.2,1.1
			c-0.8,2.8-1.3,5.7-1.6,8.6c-0.3-0.3-0.3-0.7-0.7-0.1c-2.2,11.9-1.9,17.6-2.5,30.4c0.5,0.2,0.5-0.7,0.7-1c0,0.5,0.2,0.6,0.2,1
			c0.1,1.4-0.3,1.7-0.9,1.5c-0.2,1.2,0.3,3.8-0.2,4.1c-0.8-0.3-0.4-2-0.3-3.1c-0.3-0.1-0.6-0.2-0.5-1c-0.1-1.1,0.1-2.1,0.5-3.1
			c0.1-1.8-0.8-1.3-0.7-3.2c0.6-2.7,0.3-7.5,0.4-9.4c-0.1,0.4-0.1,1-0.3,1c0.5-3.3,0.7-6.6,0.4-9.9c0.3,0,0.7,1.9,0.9,0.7
			c-0.6-0.2,0.4-0.9,0.2-2.1c-0.4,0.5-0.7,0.5-0.6-0.6c1.5-2.6,0.5-5.2,1.6-8.7c-0.9-0.9-0.8,1.9-1.6,1.3c0.3-2.8,0.7-4.3,1.3-7.8
			c-0.7-0.6-0.7,2-1.4,1.3c1-1.2,1-3.3,0.4-3.2c0.2-0.6,0.5-1,0.9-0.9c0.6-1.8-0.5-1.5,0.1-3.3c1.1,0,0.8-2.6,0.9-3.6
			c0.2-1.7,1.5-3.8,0.7-3.7c-0.7,2-1.3,4.1-1.9,6.2c-0.6,2-1.2,4-1.6,6c-0.2,1,0,1.7-0.3,2.7s-0.8,1.6-1,2.5
			c-0.2,1.1-0.3,2.1-0.3,3.2c-0.5,3.3-1.4,6.6-1.6,10c-0.1,1.1,0.2,2,0.1,3.2C0.7,176,0,180.9,0,186.3c0,1,0.8,0.4,0.7,1.6
			c-0.1,1.8,0.2,4.3-0.2,5.3c0.5,0.6,0.8,1.4,0.7,2.1c-0.5,0.1-0.3-1.5-0.7-1.6c0.2,3.9-0.2,7,0.6,9c-0.6,3.1,0.6,5.5,0.9,7.4
			c0.1,0.7-0.2,0.7-0.1,1.6s0.3,1.9,0.4,2.8s0.3,2,0.5,3c0.3,2.1,0.6,4.2,0.9,6.2c0.2,1,0.5,1.1,0.7,2c0.1,0.6,0,1.3,0.1,1.6
			c0.2,0.6,0.8,1.3,0.9,2c0.2,0.9,0.1,1.8,0.3,2.6c0.2,0.6,0.3,0.7,0.6,1.5c0.9,3,1.2,5.9,2.1,8.8c0.4,1.3,1.3,2.8,1.7,3.9
			c0.2,0.6,0,0.8,0.3,1.6s0.8,1.2,1.1,2c-0.2,2.3,1.9,5,2.9,8c1.2,3.5,2.7,6.9,4.3,10.2c0.5,0.9,1.3,1.7,1.8,2.7
			c0.4,0.7,1.7,3,2.3,4.2c0.9,1.7,1.7,3.5,2.3,5.3c0.4,0.7,0.7,0.1,1.2,1.2c0,1.4,1,2,1.7,3.9c0.2,0,0.4-0.2,0.7,0.2
			c1,2.2,2.3,4.4,3.9,6.3c-0.2,0.2-0.6,0.3-0.3,0.8c0.3-0.2,1.5,1.3,1.9,2c0.9,1.3,1.8,2.9,2.6,4.4s1.7,2.8,2.3,3.8
			c0.4,0.6,0.9,0.8,1.2,1.1s-0.2,0.9,0.6,1.5c2.2,1.1,3.6,5.4,6,6.7c-0.5,0.9,1.1,2.8,2.2,4.3c0-0.6,2.7,0.7,3.4,2.7
			c-0.6-0.9-1.9-1-1.2-0.3c2.3,1.9,3.9,4.4,6.1,6c0.8,0.9,0.1,1.3,1.4,2.4c1.6,1,1.9,1.8,3.1,2.9c1.5,1.2,3,2.6,4.4,4
			c0.5,0.6,0.7,1.1,1.3,1.7c6.2,6.3,14,11.9,21.4,17.2c1.3,0.9,2.2,1.6,3.6,2.4c3.2,1.9,7.4,4.4,10.8,6.3c0.6,0.4,1.1,0.3,2.1,0.8
			c2.5,1.2,4.9,2.8,7.2,3.9c0.7,0.3,1.4,0.5,2.1,0.6c1.2,0.5,2.2,1.6,3.5,1.5c1.1-0.3-1.5-1.6,0-1.3c0.3,1,2.4,1.2,2.8,0.4
			c-1.3-0.4-2.4-1.2-3.1-2.3c0.1-0.8,1.6-0.4,0-1.3c-0.6,0.4-2.7-0.9-2.5,0.2c0.3,0.7,2.6,0.7,2.2,1.7c-1.9-1-3.3-0.9-4.7-2.5
			c1.1,0.5,0.9-0.4,1.4-0.4s1.9,1,1.7,0.2c-1.4-1.4-1.8-0.5-2.7-0.6c-0.7-0.1-1.1-0.7-1.5-0.5c0,0,1.3,1.1,0.3,0.6
			c-0.6-0.5-1.1-1-1.6-1.5c1,0.4,2.1,0.7,3.2,0.8c-1.8-1-3.7-1.6-5.7-1.7c-1-1.2-2.2-0.5-3.9-1.7c0.1-0.4,0.8-0.2,0.9-0.6
			c-2.2-1-1.5,0.9-3,0l0.5-0.8c-1.7-0.7-1.6-1.3-3.2-2c-1.4-0.2-0.7,0.8-1.7,0.7c-0.3-0.8-0.7-1.5-1.2-2.1c1.2,0.2,2.6,2.1,2.8,0.5
			c0.9,1.4,2.3,1.2,3.3,1.8c0.6,0.3,0.4,1.1,1.8,1.2c1.8,0.2,3.4,1.2,7,2.7c0.4-0.5-1.5-1.7,0.5-1c-0.4,0.4,0.6,0.9,0,1.3
			c0.9,0.5,1.8,0.9,2.7,1.4l2.9,1.2l5.6,2.1c0.8,0.3,1.6,0.9,2.4,1.1c0.6,0.2,1.6,0.1,2.2,0.3c0.9,0.3,2,1,2.9,1.3
			c2.5,0.8,5.1,1.3,7.7,1.9s5.2,1.1,7.8,1.7c0.5,0.3,1,0.5,1.5,0.6c3.6,0.9,7.1,1,10.5,1.5c2.1,0.4,4.2,0.6,6.3,0.6
			c1-0.3,0-0.3,0.2-0.9c1.2,0.2,1.9,0.2,2.1-0.1c-1.1,0.3-1.2-0.6-2.5-0.8c-0.5,0.1-1.1,0.1-1.6,0"/>
		<path class="st0" d="M310.1,46.6c-1.3-1.2-1.2-2.1-3.1-3.5C305.8,43.5,310,46.5,310.1,46.6"/>
		<path class="st0" d="M63.7,50.7c-0.3-0.6-1-0.1-2,0.9C62,52.1,62.7,51.7,63.7,50.7"/>
		<path class="st0" d="M262.4,14.8c1.9,0.6,4.7,2.3,5.9,2.4C266.5,16.4,263.6,14.7,262.4,14.8"/>
		<path class="st0" d="M319.8,55.9c-0.7,0.5,1.7,2.2,2,3C322.5,58.4,321,57.1,319.8,55.9"/>
		<path class="st0" d="M306.9,40.6c-0.9-0.8-1.9-1.6-2.9-2.3c-0.4,0.3,0.3,0.9,1,1.4S306.8,40.8,306.9,40.6"/>
		<path class="st0" d="M327.3,59.7c-1.3-1.6-3.3-3.3-3.8-4.4c-0.3,1.6,5,5.8,7,8.5C331,63.1,328.7,61.3,327.3,59.7"/>
		<path class="st0" d="M342.3,81.8c-0.7,0.2,0,1.3,0.9,2.5C343.8,84,343,82.9,342.3,81.8"/>
		<path class="st0" d="M324,61.2c0.8,0.9,1.4,1.4,1.7,1.2c-1.3-1.3-0.7-1.9-1.9-3.2C322.8,59.5,324.8,61,324,61.2"/>
		<path class="st0" d="M321.6,55.7c-0.3,0.6-1.9-2.1-2.2-1.5c2,1.8,2.7,3,4.2,4.6C324.6,58.4,321.4,56.4,321.6,55.7"/>
		<path class="st0" d="M49.5,66c0.2-0.1,0.7-0.5,0.9-0.6c1.2-0.6,1.2-1.4,1.8-1.9c0.2-0.2,0.4,0,0.9-0.6s0.6-1.4,1.1-1.8
			c0,0,0.3,0.4,0.3,0.3c0.7-0.3,1.7-2,2.2-2.2c0.1-0.3,0.5-1.8,1.3-1.6c0.2,0.5-1.6,1.7-1,2c1.3-0.8,2.3-3.1,2-4
			c1-0.4,4.3-1.9,4.5-3.6c-1.1,0.7-2.6,2-2.9,0.7c-1.3,1.4-1.6,2.6-3.8,4.4c-0.2-0.2,0.1-0.5,0-0.7c-1.6,1.2-0.7,1.5-1.9,2.6
			c-2.8,2.2-5.2,4.7-7.3,7.5C49.3,64.4,48.8,66.3,49.5,66"/>
		<path class="st0" d="M23.2,105.4c-0.3,1.3-1.5,0.6-1.1,1.8c0.2-0.3,0.5-0.6,0.9-0.7c0,0.9-0.8,2.3-0.7,3.2
			C23,108.8,23.2,106.5,23.2,105.4"/>
		<path class="st0" d="M21.1,101.9c0.9-3.2,3.2-6.2,5.5-9.7c0.3-1-0.6-1.3,1-2.5c0.3,0.8,0.2,1.7-0.1,2.5c-0.4,0.7-1,1.6-0.4,1.6
			c2.1-3.2,3.3-6.7,5.5-8.3c-0.4-0.2-0.1-0.8-0.5-1c-1.3,1.7-2.7,4.6-3.5,4c0.7-1.8,1.4-1.9,2.1-3.7c-1.6,0.6,0.5-1.8-0.4-2.3
			c-0.5,0-1.2,1.1-1.8,1.4c-1.6,2.5-2.8,4.9-3.9,6.9c-0.9,1.6-1.6,3.4-2.1,5.2c-0.3,1.4-0.5,0.5-1,1.9c-0.6,1.8-0.9,3.8-1.8,5.8
			C20,102.8,20.5,102.2,21.1,101.9"/>
		<path class="st0" d="M29.1,102.3c-0.8,1.7-2.7,4.3-2.7,5.5C27.1,106,29.1,103.5,29.1,102.3"/>
		<path class="st0" d="M29.6,103.8c-0.4,1-1.8,2.8-1.5,3.2C28.8,106.1,30.2,104.4,29.6,103.8"/>
		<path class="st0" d="M35.3,87.9c-0.3-0.4,0.4-1.4,0.1-1.8c-0.7,0.9-1.1,1.9-1.2,3C34.5,88.7,34.9,88.3,35.3,87.9"/>
		<path class="st0" d="M31.3,90.2c0.7-1.2,1.2-1.3,1.6-0.8c1.4-1.7,0.6-2.1,1-3.1c0.3,0.2,0.3,0.5,0.3,0.8c1.6-2,2.6-4.4,3-6.9
			c0.5-0.7,1.1-1.4,0.6-1.5c-0.5,0.5-2.1,3.2-2.2,3c0,0.1,0.7-1.3,0.4-1c-1,1.2-1.4,1.4-1.6,2.8c1.3-2.1,0.6-0.5,1.3-0.3
			c0.3-0.3,0.6-0.8,0.8-0.7c-0.6,0.7-1.5,2.7-2,2.5c-0.2-0.2,0.3-0.9,0.2-1.1c-1.1,1.2-0.4,1.3-0.8,2c-0.9,0.4-0.2-0.2-0.8-0.6
			C32.3,87,30.3,89,31.3,90.2"/>
		<path class="st0" d="M47.4,70.5c0.6-0.1,0.9,0.8,1.9-0.4C49.1,69.4,48.8,68.7,47.4,70.5"/>
		<path class="st0" d="M44.8,73c1.7-1.7-0.2-1.1,0.3-1.8l2.3-2.8c-0.1-0.2-0.3-0.3,0-0.7c1.2,0.2-0.6,1.8-0.5,2.4
			c0.9-1.2,2.8-2.3,2.5-3.3c-1.5,1.7-0.6-0.1-0.5-0.5c-1.4,0.2-2.3,2.6-2.9,1.6c-1.2,1.7-1.7,3,0,1.4c-1.8,2.5-3.3,2-3.8,4.3
			C44.8,70.3,43.5,73.3,44.8,73"/>
		<path class="st0" d="M37.9,80.8c0.4,0.8,1.2-0.6,1.5-0.8s-0.1,0.8,0.1,0.7c0.4-0.2,1.3-2.1,1.8-1.2c-1,1.4-1.9,1.8-3,3.6
			c-0.2-0.6,0.3-1.7-0.6-1.1c-0.7,0.9-2.9,4.1-1.4,2.9c-0.3-0.4,1.3-2.1,1.5-1.4c-0.4,1-2.1,3.2-1.9,4.4c0.9-1.7,2-3.3,3.2-4.8
			c1.4-1.5,2.5-3.2,3.5-5c-0.8,1-0.7-0.4-0.2-0.8c1.3-1.7,2.3-2,3.7-3.6c-0.7-0.2-2,0.8-3.2,2.2c-1.1,1.3-2.1,2.6-3,4
			c0.2-1-0.4-0.4-0.9-0.7c1.8-1,3.6-3.5,3.6-5.2c-0.5,0.6-1.1,1.5-1.3,1c-2.1,2.3-1.8,3.3-3.4,5.3C37.9,80.4,38.2,80.5,37.9,80.8"/>
		<path class="st0" d="M40.1,281.9c0.9,1.4,1.7,2.8,2.6,4.2C43.4,285.4,40.7,282.6,40.1,281.9"/>
		<path class="st0" d="M326.3,320.4c0.7-0.7,2-2.4,1.8-2.8c-2.1,2-2.3,2.7-4.1,4.1C324.1,322.3,325.7,321,326.3,320.4"/>
		<path class="st0" d="M178.9,362.6c-1.2,0-5.5-0.7-4.4-0.2C176.5,362.3,178.2,363.5,178.9,362.6"/>
		<path class="st0" d="M69.5,315.6c-1.8,0.2,3,3.4,2,2.2C70.4,317.5,70.6,316.7,69.5,315.6"/>
		<path class="st0" d="M306.8,254.6l-2.2,2.4l-2.3-1.5l-0.9-0.2h-1.3l-0.2-0.9l-0.7,1l-1.1-2l-0.7,0.8l-0.8,2.6l-1.3-1.1l-3.2-0.7
			l-4.5-5.6l-0.2-0.9l-2.7-2.1l-0.3-2.6l-5.5-8.5l-0.5-2.4l-2.1-0.5l-2.6-5.3l-3.1-4.4l-0.2-1.1l-1.8-1.2l-1-2.5l-0.6-0.6l-1.4-2.4
			L265,215l-2-2.3l-0.1,3.8l0.8,0.5l-0.9,5.3l-0.8,1.5l0.3,1.5l-0.3,0.9l0.3,2.4l-0.8,1.5l-0.9,4.2l0.3,1.7l-0.9,0.9v2.2l-1.8,2.4
			l0.3,1.5l0.9,0.9l-1.7,3.7l0.3,1.7l-0.6,1.2l0.8,0.5l0.3,1.5l-0.7,1.9l-0.3-0.6l-0.4,1.4l1.1,0.2l-0.3,1.6l-0.9,1.3l-0.4-1.9
			l-0.6-1l-1,1.8l1.1-0.2l-0.2,2.3l-2-1.2l0.3,1.3l-1.4,0.7l-1.6-0.1l-0.3-1.3l-1.6,1.9l-2.7-2.1l-1,0.6l-1.3,0.3l-1.8-1.2l-0.8,1.5
			l-0.8-0.7l0.6-2.8l-0.2-0.9l0.6-1.2l0.9-4.2l0.7-14.2l1.1-1.3l-0.6-1l1.4-0.9l-1.2-0.4l1.1-1.3l-0.2-3.1l0.9-1.3l-0.8-0.5l0.8-0.6
			v-2l-0.4-3l3.4-0.9l-1.8-1.4l-0.4-3l0.3-0.7l-0.5-2.4l2.9-21.1l-0.9-1.4l-4.8-10.6l-0.7-0.3l-1.4-3.5l-3.8-5.5l-2.6-5.3l-1.3-1.1
			l-2.1-3.6l-1-2.5L213,128.5l-0.4-5.1h1.1l0.3,0.6l0.5-0.8l2.4-0.5l1.8,1.4l1.9-0.4l0.2,0.8l2-1.3l1.6,1.4l2.6-0.5l2.6,1.9l4.2,4.5
			l0.1,1.8l2,1.1l0.4,2.1l2.6,3.9l0.3,2.6l1.1,2.2l2.4,3.3l0.3,1.5l1.1-0.2l1.5,3.9l0.8,0.5l2.8,4.1l0.7,2.5l1.2-0.7l0.3,2.4
			l1.4,1.3l4-51.6l1.3,0.8h3.1l1.3,0.8l0.9-0.9l0.4,1l1.8,0.3l0.9,0.9l0.2-1.2l0.4,1l1-0.7l2.2,0.9l0.5,2.4l1.1-0.2l0.4,1.9l1.3,2.2
			l-0.1,2.9l-0.5,0.6l0.9,4.5l0,5.8l-0.9,4.2l0.8,0.7l-1.2,4l0.3,1.5l-2.2,3.3l0.2,0.9l1-0.6l-0.2,0.9l-1.2,1.8l0.3,2.4l-0.9,0.2
			l0.5,3.5l-0.5,0.8l1,1.6l0.4,1.9L269,164l-0.2,2.5l1.6,1.5l-1,1.8l-0.3,4.1l-0.6,1.2l-1.5,7.3l0.7,1.4l-0.2,2.1l-1,1.5l1.3,4.2
			l0.7,0.1l0.8,1.8l0.5,3.5l1.5-0.3l2,3.4l0.7,0.3l2.8,5l2.2,2l1.9,3.9l1.3,0.9l0.2,1.1l0.8,0.7l1.9,4.1l0.1,1.5l1.1-0.2l2,1.1
			l0.6,2.8l0.9-0.2l-0.1,0.7l1.5,3.2l1.5,0.6l0.2,2.2l1.1-0.2l0.4,1.9l1.1,2.2L295,235l0.9-0.9l0.9,0.9l0.3,1.3l0.7,0.1l0.5,1.7
			l-0.2,0.9l0.8-0.4l0.6,2.8l0.8-0.6l1,5.1l1.8,1.2l0.5,1.5l2.8,3.7l1-0.6L306.8,254.6z M259.2,242.5l-0.2-1.1l1.3-0.3l0.3,1.5
			L259.2,242.5z M302.3,279.6l-3.4,1.4c-11.1,3.4-22.6,5.1-33.3,6.9c-12.1,2.2-23.5,4.4-35.5,6.9c-29,6.1-58.1,11.8-87.2,17.6
			c-9.2,1.7-15.8,2.4-20.9,2.2c-6-0.3-4.2-2.4,4.2-4.8c5.1-1.5,10.3-2.7,15.5-3.7c14.2-2.9,29.1-5.9,43.3-8.6l76.6-15.5
			c10.6-2.1,20.6-3.9,30.7-5.3C305.7,274.8,309.7,275.9,302.3,279.6 M122.1,291.1l-0.3-1.7l1.5-0.3l0.6-2.4l1.7,5.2l-1.4,2.1
			l-0.5-2.6L122.1,291.1z M159.2,184.3v-2.2l0.3,1.5L159.2,184.3z M113.1,287.4v-2.2l0.7-1.9l-1.1,0.2l0.6-0.6l-0.2-1.1l-0.8-0.5
			l-2.3-5.6l0.4-1.2l-0.4-2.1l-0.9,0.9l-0.3-1.7l-0.9-0.9l2.2,10.7l-1,1.3l-0.6-0.5l-0.4-2.1l-0.7-0.3l-0.4,5.6l-2.8-8.3l0.4-1.2
			l-0.2-1.1l-1-0.7l0.4-2.5l-2-4.5l0.1-1.8l-0.7-1.4l-1.6-7.9l-2-3.8l-0.7-5.6l-0.7-3.2l-0.8-0.7l0.3-2.1l-1.5-1.7l-4.1-20.5
			l0.8-1.7l-0.7-1l-0.4,1.2l-0.4-2.1l0.7-1l-1-0.7l0.6-0.6l-1.9-5.2l0.5-1.9l-1.2-2.4l-0.8-4.2l-1.3-0.9l0.2-2.3l-0.1-2.6l-0.6-0.6
			l0.6-4.6l-1.2-0.6l-2.2-4.2l1-1.8l1.1-0.2l-1.3-0.9l-0.5-2.4l1.5-1.2l1.1-0.2l-0.3-1l-1.8-0.1l-2,0.9l1.3-2.5l-0.7-3.6l-3.3-7.6
			l-1-4.9l1.2-4l1.9-0.4l0.8-1.3l4.1-0.8l0.9-2l0.8,0.9l5.8-1.2l9.2,12.6l1.9,1.8l1.6,2.4l2.2,5.1l1.3,0.9l4.6,6.4l0.2,1.1l0.7,0.3
			l0.9,2.1l0.7,0.3l0.4,2.1l2.2,2.9l1.4,3.7l0.9-0.9l-0.7,1.9l1.9,1.8l2.8,5l1,4.7l1.7,0.8l0.9,2.5l-0.3,0.7l1.9,4.1l0.8,0.7
			l-0.4,1.4l1.4-0.9l0.5,2.4l0.2-4.7l0.8-6.9l1.7-7.9l-0.2-1.1l0.7-7.5l1-4l-0.4-1.7l3.6-4.5l-1-4.7l0.3-0.7l-0.4-2.1l2-3.1l0.6-2.4
			l0.7,0.3l0.2-1.2l-0.4-2.1l2.6-5.9l-1.5,0.3l-0.4-2.1l2.5-1.9l-0.3-1.5l0.8-3.9l-0.4-1.7l0.9-1.3l0.2-5.8l0.5-2.1l0.9,0.9
			l-0.3-1.5l-0.8-0.5l0.5-0.8L146,130l-1.3-0.9l-0.2-3.3l0.9,0.9l0.7-1.9l0.6,0.6l3.3-0.2l-0.2,1.2l0.6,0.6l0.9-1.3l1.5-0.3h2.2
			l3,0.5l1.1-0.2l1.2,0.4l1.3-0.3l1.2,1.3l5.2,17.9l1.7,3l3.1,15.4l2.8,10.4v4.4l1.3-0.3l1.9,9.6l0.9,1.4l-0.5,0.8l0.7,0.3l2.1,10.3
			l1,2.7l-0.2,3.4l1.1-0.2l-0.3,1.6l0.9,2.1l0.8,0.5l0.2,6.6l1.3,0.9l-0.6,0.6l0.6,2.8l0.7,0.3l-0.6,0.6l0.4,2.1l0.8,0.5l-0.4,1.2
			l0.7,0.3l-0.5,0.8l1.8,9l0.8,0.5l-0.9,0.9l1.2,0.6l0.1,3.8l1.1,2l1.9,9.2l0.6,1l1,6.9l0.5,2.6l1-0.6l-0.8,1.7l0.4,2.1v-2.2
			l1.9,9.2l-1,0.6l1.9-0.4l-0.7,3l-0.9-1l-0.9,1.3l-1-1.4l0.4-1.4l-2.1,0.4l0.2,3.3l-2.9-5.4v2.2l-0.8-0.5l-0.9,0.9l-0.6-0.6
			l0.2-1.1l-0.5-2.6l-1,0.6l0.2,1.1l-0.3,0.7l-1.8-3.6l-1-1.4l-0.6,2.4l-0.2-1.1l-0.6-0.6l-0.9-1.4l-0.1,1.6l-0.9,1.3l-0.7-0.3
			l-0.6-2.8l-0.8-0.5l0.3-1.6l-1.3,0.3l0.9-4.6l-1-0.7l-1-2.7l-0.6-3.2l-0.7-0.3l0.2-2.3l-1.9-4.1l-2.5-12.8l0.2-2.5l-0.5-1.2
			l-0.4-1.7l0.4-1.2l0.8,1.6l-0.6-3.2l-1,0.6l-0.6-1l-0.7-3.6l0.2-1.2l-1.1,0.2l-3.2-16l0.3-1.8l-1.7-3l-1.6-7.9l1.2-1.8l-0.2-1.1
			l-0.6-0.6l0.2-1.2l-2.1-2.7l-0.1,2.7l-0.6-2.8l0.2-2.3l-1.1-5.4l-1.1-2l-1.4-4.6l-1.2,5.1l-0.9-1.4l-0.2,2.3l1,0.7l-0.6,5l-1,1.5
			l0.4,2.1l-1.2-0.2l-0.3,1.6l1,0.5l-0.6,1.7l-0.3,3.9l-0.9,0.9l0.8,0.5l-1.2,2.9l0.7,3.4l-1.3,1.2l0.4,2.1l-0.3,1.6l-0.4-2.1
			l-0.6,2.4l0.7,3.4l-1.2,1.8v5.6l-0.7,7.5l1.1,10.7l0.3,1.7l-1.2,1.8l-1.7,0.4l-0.9,0.9l-1.3-0.9l-0.5,0.8l-3.3-0.9l-1.5,1.2
			l-3-1.6l-1.6,0.8l-2.1-0.7l-1.3,0.3l-4.8-5l-1.8-1.2l-0.3-1.7l-0.9,0.2l-2-3.4l-0.9-0.9l-19.4-34.6l4.8,19.5l3.2,10.1l2.7,13.5
			l0.9-0.9l-0.8,1.7l0.3,1.7l1.4,1.2l0.3,5.7l1.5,1l-1,2.6l0.6,1l2.3,8.2l0.8,1.6l-0.1,1.6l0.9,4.3l-0.5,2.1l1.1-1.1l2.7,13.3
			l-0.9,1.3l0.3,1.7l0.7,0.3l0.8,1.6l-3.2,5.1l-1.3,1.4l-0.8-0.5l-0.4-2.1l-1-1.4l-0.8,1.7l0.1,2.9l-0.9-0.9l-1.1,0.2l-0.6-1
			l-0.2-1.1l1.1-0.2l-0.2-3.1L113.1,287.4z M111.1,288.2l-1.5-3l-0.9,0.9l0.3-1.8l1.4-1.9L111.1,288.2z M110.5,290.1l-0.2-1.1
			l0.9,0.3L110.5,290.1z M74.7,159.3l-0.6-2.8l1,1.6L74.7,159.3z M65,92.4c0.3-0.2,0.6-0.4,0.9-0.5c1.6-0.6,3.2-1.2,4.8-1.8
			c0.7-0.2,1.4-0.4,2.1-0.6c1-0.3,1.9-0.6,2.8-0.9c0.3-0.1,0.7-0.2,1.1-0.3c0.4-0.1,0.7-0.2,1.1-0.3c0.3-0.1,0.7-0.1,1-0.1
			c0.3,0,0.6,0,0.8,0.2c0.3,0.2,0.3,0.6,0.2,0.9c-0.1,0.5-0.5,0.9-1.1,1c-0.8,0.2-1.6,0.4-2.3,0.6c-1,0.3-2,0.7-3.1,1
			c0,0.2-0.1,0.4,0,0.5c0.3,1,0.5,2,0.6,3c0.5,2.6,0.9,5.2,1.4,7.8l1.3,6.4c0.3,1.6,0.7,3.2,1,4.8c0,0.2,0.1,0.4,0.2,0.6
			c0.3,0.9,0.5,1.9,0.7,2.9c0.2,1.1,0.3,2.2,0.5,3.2c0.1,0.3-0.1,0.7-0.3,0.9c-0.3,0.3-0.7,0.6-1.1,0.8c-0.4,0.2-0.9,0.1-1.1-0.3
			c0,0,0-0.1-0.1-0.1c-0.1-0.1-0.1-0.3-0.1-0.5c-0.2-1.5-0.5-2.9-0.8-4.3c-0.2-0.8-0.5-1.6-0.7-2.4c-0.4-1.8-0.8-3.7-1.2-5.5
			l-0.6-2.8c-0.3-1.3-0.5-2.7-0.8-4c-0.1-0.4-0.1-0.7-0.1-1.1l-0.1-0.4c-0.6-2.3-0.9-4.7-1.4-7c-0.1-0.4-0.2-0.8-0.3-1.2
			c-0.3-0.2-0.6,0-0.8,0c-0.7,0.2-1.3,0.5-2.1,0.7c-0.4,0.2-0.9,0.3-1.3,0.5c-0.6,0.2-1.3-0.1-1.6-0.6C64.5,93.2,64.6,92.7,65,92.4
			 M85,101.1c0.1-0.1,0.2-0.2,0.4-0.2c0-0.1,0-0.2,0-0.2c-0.4-1.4-0.4-2.9-0.7-4.3s-0.5-2.9-0.7-4.4c-0.1-0.7-0.2-1.4-0.3-2.2
			c-0.1-0.5-0.2-1-0.2-1.5c-0.2-1-0.3-2-0.5-3c0-0.3,0-0.6,0.2-0.8c0.5-0.2,1-0.3,1.5-0.2c0.3,0,0.6,0.2,0.7,0.5
			c0.1,0.4,0.2,0.8,0.3,1.2c0.4,1.6,0.7,3.3,1,4.9c0.2,1,0.3,1.9,0.5,2.8s0.3,2,0.5,3c0.1,0.9,0.3,1.8,0.5,2.7
			c0,0.1,0.1,0.2,0.1,0.3c0.9-0.2,1.8-0.6,2.7-1c0.9-0.3,1.7-0.7,2.6-1.1l-0.1-0.4c-0.8-3-1.4-6.1-1.9-9.2c-0.3-1.7-0.5-3.3-0.8-5
			c0-0.2,0-0.5,0-0.7c0-0.3,0.3-0.5,0.6-0.5c0,0,0,0,0,0c0.5,0,0.9,0,1.4,0.1c0.3,0.1,0.6,0.4,0.7,0.7c0,0.4,0.1,0.8,0.1,1.1
			c0.2,1,0.3,2,0.5,3c0,0.3,0.1,0.7,0.1,1c0.4,2,0.8,3.9,1.2,5.9s0.9,3.6,1.3,5.3c0.3,1.2,0.6,2.5,1,3.7c0.3,0.9,0.5,1.9,0.8,2.8
			c0.4,1.4,0.8,2.8,1.1,4.2c0.2,0.7,0.4,1.4,0.6,2.1c0.4,1.4,0.8,2.8,1.2,4.3c0.1,0.4,0.2,0.9,0.4,1.3c0.2,0.2,0.2,0.6,0,0.8
			c-0.3,0.4-0.5,0.8-1.1,1c-0.1,0.1-0.3,0.1-0.4,0.1c-1,0.1-1.3-0.2-1.4-1.1c0.1-0.3,0.1-0.6,0-0.9c-0.3-1.1-0.6-2.2-1-3.4
			c-0.5-1.5-0.9-3.2-1.3-4.7c-0.2-1-0.5-1.9-0.8-2.9c-0.4-1.6-0.9-3.3-1.3-4.9c-0.2-0.5-0.3-1-0.4-1.6l-0.2-0.1
			c-1.7,0.6-3.5,1.3-5.2,2c-0.1,0.4,0,0.9,0.1,1.3c0.2,0.8,0.3,1.5,0.5,2.3c0.4,1.9,0.9,3.8,1.3,5.7c0.1,0.4,0.2,0.7,0.2,1.1
			c0.2,1.2,0.4,2.5,0.7,3.8l0.6,3.2c0.2,0.8,0.3,1.6,0.4,2.4c0.1,0.4-0.1,0.8-0.5,1.1c-0.4,0.3-0.8,0.4-1.3,0.5
			c-0.4,0-0.7-0.2-0.9-0.5c-0.1-0.2-0.2-0.5-0.2-0.7c-0.2-1.8-0.6-3.5-0.9-5.3l-1.5-7.7c-0.3-1.3-0.5-2.7-0.9-4
			c-0.2-0.8-0.4-1.6-0.6-2.3c-0.2-0.1-0.4-0.2-0.6-0.2c-0.4-0.1-0.6-0.6-0.5-1C84.8,101.3,84.9,101.2,85,101.1 M104.7,112
			c-0.3-1.5-0.6-3-0.8-4.5c-0.1-0.6-0.2-1.1-0.3-1.7c-0.4-2.1-0.7-4.2-1.1-6.3c-0.3-1.7-0.6-3.4-0.8-5.1c-0.2-1.1-0.4-2.2-0.6-3.3
			c0-0.1-0.1-0.2-0.1-0.3c-0.2-1.9-0.7-3.7-0.9-5.6c-0.1-0.7-0.3-1.4-0.4-2.2c0-0.6-0.1-1.2-0.3-1.8c-0.1-0.3,0.1-0.5,0.6-0.5
			c0.5,0,1-0.2,1.5-0.4c1.2-0.6,2.3-1.1,3.6-1.7c0.6-0.2,1.2-0.4,1.8-0.6c0.7-0.3,1.4-0.2,2,0.3c-0.1,0.3-0.1,0.5-0.2,0.7
			c-0.1,0.3-0.4,0.6-0.8,0.7c-1.6,0.6-3.2,1.3-4.7,2.1c-0.2,0.1-0.4,0.1-0.6,0.2c-0.2,0.1-0.4,0.3-0.3,0.6l0.4,1.9
			c0.5,2.4,1,4.9,1.4,7.3c0.1,0.8,0.4,1.6,0.5,2.5c0.1,0.8,0.2,1.7,0.4,2.5c0.3,1.7,0.6,3.3,1,5l0.1,0.3c0.3,0.1,0.7,0,1-0.1
			c1-0.3,2-0.6,3-0.9c0.5-0.2,1-0.3,1.5-0.5c0.4-0.1,0.8-0.1,1.2-0.1c0.3,0.1,0.6,0.3,0.6,0.6c0.1,0.7-0.3,1.3-1,1.6
			c-0.2,0.1-0.5,0.2-0.8,0.2c-1.2,0.4-2.3,0.7-3.4,1l-1.6,0.4c0,0.8,0.2,1.6,0.3,2.4c0.1,0.8,0.3,1.6,0.4,2.4s0.3,1.6,0.4,2.4
			s0.3,1.5,0.5,2.3l0.5,2.4c0.4,0,0.8,0,1.2-0.2l1.5-0.4l2.2-0.6c0.2-0.1,0.5-0.1,0.7-0.1c0.5-0.1,1,0.3,1.1,0.9c0,0.1,0,0.3,0,0.4
			c-0.2,0.6-0.7,1-1.3,1.1c-1.8,0.3-3.5,1-5.3,1.3l-0.3,0.1c-0.8,0.2-1.6,0-2.3-0.3c-0.1-0.2-0.1-0.4-0.2-0.7L104.7,112z
			 M225.2,238.4l-0.2,1.1l-1.4-0.2L225.2,238.4z M222.8,265l-0.6,1.5l-0.8-0.7l-0.5,1l-1-0.7l0.2-2.1l0.7-0.8l1,1.6L222.8,265z
			 M224.7,245.9l-0.5,0.8l-0.3-1.3L224.7,245.9z M221.9,237.6l0.5,4.8l-0.6,0.6l0.4,1.9l-0.8-0.5l-1.8,1.2l0.8,3.9l0.7,0.3l0.2-1.1
			l0.9,1.4l0.9,2.1l0.2-1.2l0.7,3.4l-1.1,2.4l-0.6-0.5l-0.5,0.8l0.4,3.9l-0.5,3.2l-2.2-5.4l0.1,3.8L219,262l-0.6-0.8l-0.3-1.5
			l-1.2,1.8l0.2,0.9l-1,2.9l-0.9,0.9l-0.6-0.5l-0.4,1.2l-1.1-0.9l-29-134.4l-0.1-2.6l-1-5.1l-1-0.7v-2l1-1.5l7.9,1.7l1.7,0.6
			l0.9-0.2l3.3,0.9l0.7,1.2l1.1-0.2l1.4,4.8l3.9,19.2l0.8,0.5l0.9,8.9l1.5,3l1.5,7.3l0.9,1.4l-0.2,2.3l0.4,1.9v-2l1.6,5.7l0.1,2.7
			l0.6,1l-0.5,3l1.4,3.5l1,4.9l0.6,0.6l-0.3,0.9l5.5,24l-0.6,0.3l0.6,3l1.7,0.6l-0.7,1l0.8,0.7l-1.3,0.3l0.1,2.9l0.6,0.8l-0.7,1
			l0.8,4.1l-0.7-1.4l-0.7,2.1l1.9,1.6l0.2,1.1l0.9,0.2l1.1-0.2l-0.7,2.1L221.9,237.6z M132.2,92.7c3.6-1.2,7.3-2.1,11.1-2.8
			c10.2-2.1,20.9-4.2,31.1-6.2l55-11.1c7.6-1.5,14.8-2.7,22.1-3.5c9.8-1.2,12.7,0.1,7.6,3.4l-2.4,1.2c-7.9,2.8-16.2,3.8-23.9,5
			c-8.7,1.5-16.9,3-25.5,4.9c-20.8,4.5-41.8,8.4-62.6,12.7c-6.6,1.2-11.4,1.5-15.1,1.1C125.1,96.7,126.3,94.7,132.2,92.7
			 M376.7,185.2c0.1-1.4,0-3-0.1-5.2c-0.2-0.1-0.5,0-0.5-0.5c0-2.9-0.3-6-0.4-9.4c-0.3-0.1-0.7,0.1-0.8-0.5c-0.1-1.9-0.9-1.5-1-3.1
			c-0.4-0.3-1.3,0.7-1.5-0.4c0-0.8-0.3-1.9,0-2.1c0.6,1.9,0.7,1.1,1.6,1.4c-0.4-2-1.3-4.2-0.9-5.1c0.5,0.4,0.9,1.6,1.2,0.4
			c-0.6-1.8-0.9-3.7-0.9-5.7c-0.7-0.8-1,0.7-1.6-1.3c0.6,0,0.2-1.3,0.4-1.6s0.8,1,0.4-0.6c0-1.9-0.9-0.2-1-1.4
			c-0.6-2.3-0.1-3.8-0.5-5.7c-0.4-1.4-1.3-2.4-1.6-4.4c-0.7-0.6-0.5,1.5-0.9,0.2c-0.3-2,0.8-0.6,1.5-0.9c-0.2-1-0.5-1-0.6-0.4
			c-0.4-0.8-0.9-0.7-1.3-1.3c-0.2-1-0.6-0.9-0.9-1.4c0.1-1.7-0.7-3.1-1-5.6c-0.4-0.9-1-0.1-1.3-1.8c-0.9-1.8,0.3-1.1-0.4-2.6
			c-2-3-0.9-6-2.6-8.4c-0.1,0.7,0.1,2.1-0.7,1.4c0.5-1-0.8-4.2-2-5.9c0.4-0.3,0.7,0.3,1.1,0.1c0.1-1.1-1.5-4.9-1.7-3.8
			c0.5,0.5,0.8,1.1,1.1,1.8c-0.5,0.1-0.2,0.7-0.7,0.8c-0.2-0.5-0.4-0.5-0.6-0.9c-0.6-1.3,0.2-1.3-0.5-2.6c-1.4-0.9,0.4,3,0.4,4.3
			c-0.9-1.9-0.8-2.8-1.9-4.8c1.1,0.2-0.1-2.8-0.7-3.1l0.7,1.4c-1-0.9-0.5,1.2-1.5-0.5c0.3-0.1-0.2-1.3-0.5-2
			c-0.8-2.4-0.8-1.2-1.6-2.7c0.4-0.3,0.6-0.9,0.4-1.3c-0.6-0.2-1.2-0.5-1.9-2c0.6-0.3,0.4-1.3,0-2.4c-0.6,0.7-0.3,2.2-0.6,3.2
			c-0.2-0.4-0.5-0.4-0.7-0.8c-0.2-1.4,0.9-1.9-1.3-4.6c0.4-0.1,0.8,0.5,1.1,0.6c-1.5-2.2-2.1-5-3.6-5.1c0.7,1.3,2.2,2.4,1.7,3.2
			c-0.6-0.8-1.3-2.8-1.7-2c-0.3,0.2,0.6,1.3,0.4,1.6c-0.4,0-0.8-0.3-1.2-1.1c-0.8-1.7,0.7-0.4,0.5-1.5c-0.8-1.6-2.4-3.4-2.6-4.4
			c-0.6-0.2,0.2,1.7-0.8,0.5c0.2-1.1-0.7-1.1-1.7-2.6c0.2-0.8,2.1,1.5,0.8-0.5s-1.3,0-2-0.5c0.4,0.8,1.1,1.8,1,2.4
			c-0.9-0.8-1.6-1.8-2-3c1.8,0.9,0.2-1.7,0.6-2.3c0.4,0.6,1.2,1.6,0.8,0.7c-0.9-1.4-1.3-0.5-2.2-2.2c1.1-0.4-1.2-2.8-2-4.3
			c-1.1-0.3-4-3-4.8-4.8c0.4-0.7,1.6,1.7,2.2,1.6c-0.8-1.1-1.8-2.1-2.8-3.1c0,0.6-0.8,0.9-0.4,1.7c0.2-0.2,1.1,0.9,1,1.2
			c-1.8,0.1-1.2-2-1.9-3.1s-1.1-0.5-1.9-1.8c0.3-0.1,0.9,0.3,0-0.7c-0.8,0.2-0.3,0.9-0.7,1.3c-0.3-0.4-0.8-0.7-1.2-1
			c-0.5-0.7,0-1.1-0.3-1.7c-1.1-0.3-2-0.9-2.8-1.6c-0.5-1.2-0.4-0.4-1.2-0.9c-1.1-1.8-2.5-3.3-4.2-4.5c0.2,0.1,0.3,0.6-0.2,0.2
			c-0.3-1.3-1.7-2.2-3.2-3.3c0.2-0.2,0.7,0.2,0.9-0.2c-1.1-1.2-1.6-0.9-2.8-2.3c0.4-0.2-0.1-0.8,0.3-1c-1.1-1.2-1.3-0.3-2.6-1.7
			c-1.1-1,0.2-1.2-1.4-2.3c-0.9,0-0.3,0.7-1,0.4c-0.7-0.6-2.7-1.4-2.8-2.3c0.4-1.3,3.1,0.4,2.7-0.8c-2.6-1.9-2.8-3-3.8-4.5
			c-1.2-0.8-2.2-1.7-3.2-2.7c-0.2,0.1-0.3,0.3-0.7,0c-1.1-1.4-3-1.8-4.5-2.8c-1-0.7-1.9-1.6-2.9-2.2s-2-0.8-2.9-1.3
			c-1.5-0.8-2.7-2-4.4-2.9c-3-1.8-6.5-3-9-4.4c-0.6-0.3-0.5-0.6-1.3-0.9c-1.5-0.7-2.9-0.6-3.8-1.8c-2.2-0.2-4.6-2-7.3-3
			s-5.6-2.4-8.8-3.5c-2.2-0.8-4.9-1.4-7.6-2.1c-3.5-1.1-7.2-3-8.6-2.3c-1.8-0.6-4.1-1.4-6.3-2c-1.9-0.6-4-0.9-6-0.8
			c-1.6-0.7-3.3-1.2-5-1.4c-1.9-0.3-4-0.5-6.3-1c-1.7,0.6-5.1,0.1-7.9-0.6c-0.8-0.2-1.4,0.2-2.7,0.2c-0.5-0.2-1-0.3-1.5-0.4
			c-1.3,0-3.9,0.2-3.1-0.6c1.1-0.2,2.2-0.1,3.2,0.1c1,0.3,2,0.3,3.1,0.1c-1.1-0.3-2.1-0.5-3.2-0.6c-1-0.1-2.2-0.2-3.4-0.3
			c-2.4-0.1-5-0.3-8-0.3c-0.8,0-0.4,0.6-1.6,0.5c-0.7-0.9-2.5-0.2-3.7-0.2c-5.8,0-13.1,0.2-16.8,1c-0.9,0.2-2.1,0.2-2.6,0.3
			c-0.9,0.2-1.4,1.2-3.1,1.1c-0.7,0.2,0,0.9-0.9,1.1c-1.7,0.6-2.8,0.3-3.6,0.8c0.6-0.1,1.2-0.1,1.1,0.3c-1.4,0.1-2.8,0.1-4.2,0
			c-1.9,1-4.1,1.4-6.2,1.3c0,0.3-0.1,0.6-0.9,0.7s-0.5-0.5-1.6-0.1c0.5,0.9-1.7,0.7-2,0.7s-1.2,0.8-1.4,0.9c-0.9,0.3-1.7,0-2,0.5
			s1.7,0.4,0.2,0.9c-0.5,0.1-0.6,0.3-0.9,0.5c-1.3-0.2,1.3-1.4-0.8-1.2c1.2-0.2,1.9-0.6,1.9-1c-0.9,0.4-2.7,0.4-3.6,0.9
			c-0.4,0.2,0.3,0.4-0.4,0.6c-0.7,0.2-1.3,0.3-2,0.4c-0.9,0.3-1.6,0.8-2.4,1c-2.1,0.6-4.7,0.8-6.8,2c0.5-0.2,1.5-0.3,1.3-0.2
			c-1.1,0.8-2.5,0.8-4.5,1.4c-0.5,0.2-0.5,0.4-0.9,0.6c-0.6,0.2-0.8-0.1-1.6,0.3s-1.1,1.2-1.7,1.4c-0.5,0-1.1,0-1.6,0.2
			c-0.8,0.3-1.6,0.7-2.4,1l-2.4,1c-0.7,0.2-1.4-0.6-1.5,0.4c0.3-0.1,0.6-0.1,0.1,0.2c-1.5,0.1-2.8,1.9-4.3,1.8
			c0.7-0.4,1.7-0.8,1.2-1.1c-1.1,0.8-3.2,1.7-3.5,2.5c-2.4,0.8-5,2.3-5.3,3.4c-0.2-0.5-0.7-0.5-1.7,0.1c-2.2,1.8-6.4,4-9.4,5.9
			c-0.2-0.4-0.7-0.2-1.5,0.5c-1.1,1.8,2.4-0.5,1.6,0.6c-1.6,1.1-2,0.3-3.2,0.8c-2.4,1.7-4.1,3.3-6.2,4c0.8,0.5-1.2,1.6-1.6,2.3
			c-1.8,0.7-3.4,1.9-4.7,3.3c0.1-0.2,0.6-0.2,0.1,0.2c-1.1,0.7-3.2,1.1-3.9,2.6c0.5-0.3,1.2-0.5,0.7,0c-3.1,1.3-6.3,4.4-5.2,6
			l1.9-1.7c-0.2-0.3-0.7-0.5-0.2-1.1c0.1,0.7,0.8,0.2,1.6-0.5s1.7-1.5,2.1-1.4c0.6,0.4-2.3,1.7-1.7,2c0.6-0.6,0.3,0.4-0.1,0.7
			s-0.6-0.5-0.4-0.5c-1.1,0.5-0.6,1.4-2.2,2.3c0.2,0.5,0.8-0.1,1.2-0.2c-1.9,2.2-2.1,0.5-3.4,1.5c-0.6,1,0.8,0,0.1,0.9
			c-1.3,0.5-2.4,1.5-3.1,2.7c0.5-0.4,0.9-0.8,1-0.4c-0.8,0.7-0.5,1-0.8,1.4c-1.6,1.8-2.5,1.7-4,3.3c0.1,0.4,1-0.1,0.5,0.5
			c-1.6,1.4-2.6,1.4-4.2,3.1c-0.2,1-1.9,2.5-2.3,3.5c0.4-0.6,1-1,1.7-1.2c-0.4,1-2.2,2.6-3.2,4c-0.4,0.7,0.1,1.1-0.8,2
			c-0.4-0.2,0-0.8-0.4-1c-1,1.2-1.8,2.6-2.4,4c-1.5,1.5-2.6,3.2-3.3,5.2c-2.5,2.8-5.2,6.3-5.8,8.4c-0.4-0.5-1.1,0.5-1.7,1.3
			c-0.3,1.7-1.5,2.7-2.1,4.8c0.3-2.2-1.4,2.4-1.9,1.2c0.2-1.9,2.2-3.2,3.1-4.7c-0.4-1.2,1.9-2.6,1.7-3.9c-0.8,1.8-1.3,0.9-2.1,2.3
			c0.5,0.2,0.4,0.8-0.2,1.7c-0.4-0.2,0.7-2.7-0.4-1.5c0.3,0.4-1.2,2.1-1.5,1.5c0.6-1.2-0.5-2-1.3-1.5c-1,2-2.1,3.7-2.8,5.1
			c-0.1,0.2,0.4,0.2,0.1,0.7s-1.6,1.8-0.8,2c0.9-0.7,1.2-3.1,2.5-3.4c0.7,0.7,0.8,1.8,0.3,2.7c0.5-0.8,0.9-0.8,1.3-0.4
			c-0.3,0.4-0.2,0.6-0.3,1c-0.7,1.7-1.2,1.6-1.9,3c0.6,0.8-1.5,2.1-0.6,2.6c1.1-0.8,1.5-3.2,2.2-4.6c0.5,0.4-0.7,1.9-0.2,2.3
			c0.5-0.9,1-1.9,1.5-2.9c0.4-0.9,0.8-1.8,1.2-2.6c0.2,0.1-0.1,0.8,0.4,0.2c2.7-6.8,9.7-14,14.3-21.8c-0.3,0.4-0.7,0.2-0.3-0.3
			c0.6-0.1,1.6-1.7,2.2-1.5c0.2-1.6,2.2-2.6,3.5-3.8c0.7-0.8,1.1-1.6,1.9-2.4c0.5-0.6,1.3-1.1,1.9-1.7c2.1-2.4,4.5-4.7,7-7.2
			c2.5-2.5,5.2-4.8,7.9-7.2s5.5-4.6,8.2-6.6l4-2.9c1.3-1,2.6-1.8,3.8-2.6c0.2-1.2-1.5,0.8-1.7,0.3c1.6-1.3,3.9-1.2,4.2-2.9
			c-1.4,0.7-1.8,0.8-2.4,1c0.5-0.8,1.5-0.8,3-2c-0.3,1.2,0.6,0.3,1.2,0.9c-2.1,1.7-4.3,3.3-6.6,4.7c-1.8,1.2-4.1,2.6-4.2,3.7
			c0.9-0.7,2.4-1.9,4.1-3.1c1.5-1,3.1-2,4.7-2.8c0.2-1.1,2.3-1.9,2.8-2.2c5.5-3.5,11.9-7,16.1-9.6c-0.2,0-2.4,0.8-1.1,0
			c1.6-0.8,1.8,0,3.1-0.5c0.9-1.1-1.2,0-1-1c1.2,0,3.1-1,2.4,0.4c1.3-0.7,3.5-0.9,3.6-1.9c-1.3,0.6-2.3,1-3,0.9
			c0.4-0.9,3.7-2.9,3.8-1.5c1.6-0.5,0.7-1,1.6-1.5c1.9,0.1-0.8,1.2-1.4,1.9c1.8-0.3,3.6-0.8,5.3-1.7c0-1-2.5,0.9-2.3-0.3
			c3.3-0.9,3.8-2.2,6.3-3.5c-0.4,1.6,3.6-1.2,3.3,0.3c-1.8,0.2-3.1,1.6-4.8,1.5c0.6-0.2,1.4-0.5,1.4-0.8c-0.5,0.2-0.6,0-1,0.1
			c-1.1,0.4-0.4,0.5-0.8,0.8c-0.7,0.5-1.9,0.9-0.7,1c0.7,0.5,0.5-0.8,1.8-0.9c2.6-0.5,5.9-1.5,7.1-2.8c-0.8,0.1-2.4,1.1-2.5,0.6
			c0-0.3-0.3-0.6,0.3-0.9c0,0.9,1.6,0.2,3.1-0.3c0.1,0.3-0.5,0.5-0.3,0.8c2.6-0.9,5-1.6,6.7-2.1c2-0.5,2.3-0.7,3.9-1
			c1.3-0.3,2.8-1,3.4-1.1c0.5,0.1,1,0.1,1.6,0.1c1.7-0.2,3.3-0.6,4.9-1c1.2-0.2,1.9-0.1,3-0.4c0.6-0.2,1.2-0.6,1.9-0.8
			c0.5-0.1,0.8,0.1,1.5,0s0.9-0.7,1.4-0.7c0.2,0,1.2,0.3,1.1,0.6c-2,0.6-3.2,0.2-3.9,1.3c-3.8,0.1-5.5,1.7-8.9,1.8
			c-0.2,0.4-0.5,0.7-0.8,0.9c-2-0.6-7.2,1.6-10.2,2.5c-1.1,0.3-2.4,0.3-3.5,0.6c-3.5,0.8-6.5,2.7-9,3.1c-0.6,0.4,0.2,0.9-0.6,1.2
			c-1.9,0.8-2.3,0.1-4.3,1.2c-0.7,0.7,1,0.6-1,1.5c0.1-0.9-0.7-0.7-1.3-0.7c-1.9,1-2,0.9-3.6,1.8c-2.6,0.1-4.2,2.2-7.2,3.5
			c0,0.3,0.4,0.6-0.1,0.9c-0.1-0.5-0.8-0.1-1.2-0.1c-2.7,1.5-4.6,2.8-6.8,4.3c-0.7,0.3-0.6-0.1-1.5,0.4c-2.4,1.5-4.8,3.2-7,4.9
			c-0.5,0.4-0.7,0.2-1.4,0.6c-1.5,1.1-3.2,2.2-4.7,3.5l-4.5,3.6c-0.7,0.6-1,0.4-1.7,1c-0.8,0.8-1.6,1.9-2.4,2.6
			c-1.2,0.9-2.8,2-3.3,3c-0.4,0.3-0.9,0.5-1.4,0.6c-0.7,0.8-0.9,1.4-1.6,2c-1.3,1.5-4.1,3.4-5.6,5c-0.4,0.4-0.7,1.1-0.9,1.2
			c-0.4,0.3-0.6,0-1.4,0.7s-0.6,0.9-1.2,1.6c-0.6,0.3-1.1,0.8-1.5,1.3c-1.5,1.8-3.7,5.2-4.7,6.6c-1.4,0.4-1,1.3-1.6,1.9
			c-0.5,0.2-0.9,0.5-1.3,0.8c-1.4,1.5-2.5,3.2-3.4,5c-0.5,0.7-1.1,1.1-1.7,1.8c-1.1,1.5-1.5,2.6-2.7,3.6c-0.7,1.2-0.7,2.1-1.4,3.3
			c0-0.3-0.2-1.6-0.9-0.7c-0.6,1.1,0.7,1.1-0.6,2.6c-0.2-0.3,0.1-0.9,0-1.2c-2.7,3.6-3.6,6.3-5.9,9.3c0.3,0.4,0.8-0.3,1.1-0.5
			c-1.5,1.4-2.2,3.2-3.2,5.6c-1.1,1.1-1.9,2.4-2.5,3.8c-0.5,1.3-0.9,2.6-1.4,3.7c-1.6,3.6-4.4,10.2-5.4,12.3
			c-0.7,1.6-0.9,3.2-1.5,4.8c-1.1,2.8-2.2,5.9-2.7,7.5c-0.2,0.6,0,0.7-0.2,1.5l-0.9,2.7c-0.2,0.9-0.4,1.7-0.7,2.6
			c-0.4,1.7-0.9,3.4-1.3,5.3c-5.2,22.4-6.7,47-1.7,70.4c0.6-0.1,0.6-0.9,1.3-0.7c0.2,1.5,0.5,3-0.2,3c-0.1-1.7-0.5-2.3-1.2-1.8
			c0,1.9,0.8,1.3,1,2.9c-0.6,0.8,0.3,3.4,0.7,5.4c0.3,0,0.6-0.2,0.8,0.4c0,2.5,2.6,4.1,0.8,3.4c0,0.7,0.8,1.4,0.7,1.9
			c0,0.1-0.5,0-0.5,0.1c0.2,1.3,0.6,2.9,1.1,4.7s1.2,3.6,1.8,5.4c0.7,2.1,1.8,5,2.7,7c0.3,0.7,0.9,1.1,1.1,1.7
			c1.1,2.6,1.8,5.3,3.2,7.3c0.3-0.8-1.1-2.2-0.8-2.4c0.5-0.7,0.8,0.9,1.2,1.6c0.4-0.2,0.7,0.2,1,1.2c0.5-0.3,0.3-1.1,1.1,0.1
			c0.6,1.6,1.7,3.4,1,3.8c-0.7-2.5-1.9-4.1-3.1-4c0,0.8,0.3,1.5,0.7,2.2c0.5,0.8,1,1.6,1.4,2.3s0.2,1.2,0.7,1.9s1.3,1.2,1.7,1.9
			c-0.1,0.5,0,1.1,0.2,1.5c0.6,1.1,1.3,0.9,1.6,2.5c-0.1-0.5-1-1.8-1.2-1.6c0.7,1.3,1.5,2.6,2.3,3.8c1.5,2.6,3.3,6.3,4.3,6.1
			c-0.1-1.4-1-1.4-1.7-2.4c0.3-0.1-0.3-0.8-0.1-1.1c1.2,1,1.4,0.3,1.4-0.8c0.4,0.6,0.9,1.8,1.3,1.6c0.3,0.4,0.5,0.9,0.8,1.3
			c-0.4,0.4-0.6,0.9-0.8,1.4c0.4,0.8,0.8,0.8,1.2,1.6c0.4-0.5,0.5-1.1,0.3-1.8c0.7,1,1.3,2.1,2,3.1c-0.2,0.1-0.5,0.1-0.9,0
			c0.5,0.9,1.3,1.6,2.2,2.1c-0.5,0.2,0.9,1.5,1.2,2.1c0.2,0,0.2-0.1,0.3-0.2c0.6,0.9,1.2,1.8,1.8,2.6c-0.5-0.1-0.9,0.1-0.7,0.8
			c-0.8-1.2-1-1.4-1-0.5c-0.4,0.6,0.8,0.4,1.1,1.1c-0.5,0.2-0.4,0.7,0.3,1.6c0.3-0.3,0.7-0.3,1.1-0.1c-0.4-0.6-1.2-1.4-1-1.7
			c0.9,0.4,1.6,1,2.3,1.7l0.5,0.6c0.2,0.3,0.3,0.5,0.4,0.9c0.1,0,0.1,0,0.2-0.1c1.2,1.5,2.4,3,3.6,4.5c0,0.1,0,0.2-0.1,0.2
			c-0.3-0.3-0.6-0.7-0.8-0.6c1.7,1.2,0.9,1.8,2.6,3.5c0.4-0.2,0.3-0.5,0.1-1l0.4,0.5v0.1c0.7,1.3,1.9,2.5,2.5,3.6
			c0.9-0.1-0.4-1.1-1-1.8l0,0c1.3,1.5,2.6,2.9,4,4.3c-0.4,0.6-1.1,0.5-1.8,0.2c1.6,1.6,3.8,4.5,5.3,5.2c-0.3-0.4-0.1-0.7,0.3-0.3
			c1.6,1.1-0.7,0.8,0.9,1.9c0.8-0.2,1-0.6,2.4,0.2c3.6,3.4,7.3,6.5,11.1,9.6c-0.3-0.1-0.6-0.2-0.6,0.2L82,326
			c-0.1,0.1,0.1,0.5,0.4,0.3c-0.3-0.4-0.2-0.6,0-0.7c0.5,0.4,0.9,0.7,1.4,1.1c-0.3,0-0.7,0-0.8,0.4c1.3,0.8,1.3,0.5,1.7,0.2
			c1.4,1,2.8,2.1,4.2,3.1c-0.2,0-0.3,0-0.5,0.1c0.4,0.4,0.9,0.6,1.5,0.6l1,0.7c0.6,0.8,1.4,1.3,2.4,1.6l1,0.6
			c-0.4-0.2-0.6-0.3,0,0.2c0.8-0.2,1.6,1.6,2.6,1.5l0.8,0.5l0,0c1.3,0.8,2.6,1.5,3.9,2.3l0.3,0.2c23.5,13.9,50,22,77.3,23.8
			c7.2,0.4,14.4,0.4,21.5,0c0.6,0.5,1.3,1,1.2,1.9l-4,0.2c-1.8-1.1-6.5-0.9-8.8-1.8c-0.1,0.3,0.1,0.7-0.5,0.7
			c-1.5-0.1-1.8,0.4-3.4,0.1c-0.5,0.6-1.2,1-2,1.1c-0.4,0.1-0.6-0.3-1-0.3c-0.8,0.1-0.1,0.8-0.6,1.1c-0.1,0.1-0.8-0.1-1,0
			c-0.6,0.3-0.4,0.8-1.1,0.9c0.6,0.1,1.2,0.1,0.9,0.5c-1.3,0.4-0.4,0.6-1.6,1.1c0.8,0.1,1.9,0,2,0.3c-0.6,0-0.7,0.3-1.5,0.2
			c0.1,1,3.2,1.6,1.3,2.6c1.5,0.3,2.5,0.4,1.4,1.2c2.5,0.6,2.7,2.1,5.5,2.6c0.2,0.7,1.8,0.8,1.5,1.7c2.8,0.1,5.9,0.7,9,0.2
			c1.1-0.2,1.6-0.7,2.6-0.8c1.7-0.3,3.9-0.4,5.8-0.6c1.4,0,2.8-0.4,4.1-1c1.9,0.3,2.8-0.4,4.7-0.7c2.1-0.4,4.6-0.6,5.7-0.8
			c0.4-0.1,1.2-0.7,1.5-0.7c2.3,0.1,2.1,1.5,0.9,2.5c1.6,0.1,2.6-1,3.1-0.5c-1.5,0.3-0.5,1.2-2.5,1.4c0.1,0.5,1,0.5,0.7,1.3
			c1.9-0.6,3.8-0.9,5.7-1.4c1.7-0.4,2.8-1.1,4.6-1.7c2.7-1,5.9-1.7,7.7-2.2c2.2-0.6,4.4-1.3,6.6-2.2c0.4-0.3,0.9-0.6,1.4-0.9
			c0.8-0.3,2.1-0.4,3.1-0.8c1.4-0.5,2.5-1.4,3.9-1.7c-0.3-1.1,3.1-1.8,5.3-2.5c1.9-1.7,6.8-2.7,10.6-4.9c0-0.2-0.1-0.4,0.3-0.7
			c1.3-0.9,2.8-1.7,4.2-2.4c1.4-0.8,2.8-1.4,4.2-2c-0.8,1,0.5,0.5,0.6,1.2c2.3-1,4.5-2.1,6.6-3.5c-1-0.3,1.3-1.2,1.6-1.5
			s-0.3-0.7,0.6-1.2c1.2-0.4-0.5,1.2,1.2,0c1.1-0.8-0.8,0-0.5-0.8c1.6-0.5,1.4-1.9,2.1-1.6c-1.5,1.5,0.9,0.1,0.2,1.3
			c1-0.8,5.1-3.2,3.8-2.9c-0.7,0.4-1.6,1.2-1.9,1c0.9-0.6,1.7-1.3,2.5-2c0.1-0.1,1.8-1.5,2.1-1.7s0.6,0.2,1.1-0.2
			c0.3-0.2,0.2-0.8,1-1.3c0.8-0.4,1.5-0.9,2.2-1.4c2-2.5,4.3-4.7,7-6.5c-0.1-0.3-0.5-0.5,0-0.9c2.1-1.3,5.5-5.1,8.5-7.9
			c0.7-0.7,1-0.6,1.6-1.3c0.4-0.4,0.4-0.8,1.2-1.8c0.5-0.5,0.9-1,1.4-1.5c2-2.6-1.5,1.6-1.2,0.2c1.1-1.4,1.8-1.5,2.3-1.4
			c1.1-1.2,1.6-1,2.7-2.5c0.5-0.5,0-0.6,0.4-1.1c0.6-0.6,0.7,0.1,1.4-0.8c0.3-1.7,2.6-2.7,3.8-5.1c0.8-0.1,1.4,0.4,2.4-0.7
			c-0.2-0.3-0.6-0.5,0.1-1.3c0.9,1.1,1,1.1,0.9,2.9c2-2.2,3.9-4.6,5.6-7.1c-0.3-0.4-0.4-1-0.1-1.4c0.5,0.3,1.2-0.8,2-1.8
			c-0.3-0.8-1.2,0.9-1.5,0.1c0.7-0.6,1.4-1.2,1.9-0.6c1.2-1.2-0.2-1,0.7-2.1l4-6.6c1.3-2.3,2.3-4.6,3.2-7.1c0.4-0.1,0.8-0.3,1.1-0.5
			c1.5-3.1,3-6.4,4.6-9.8l2.3-5.2c0.4-0.9,0.8-1.8,1.2-2.6s0.7-1.8,1.1-2.7v-1.8c1.2-0.8,0.4-0.9,1-2.4c0.3-0.7,0.7-0.6,1-1.3
			c0,0.1,0.3-1.5,0.5-2.1c0.9-2.9,1.3-4.1,1.9-6c-1-0.9,1-3.9,1.1-4.1c-0.1-0.2-0.2-0.4-0.3-0.7c0.1-0.7,0.4-1.4,0.8-1.9
			c0.9-0.9,0.7-2.2,1.1-3.5c0.3-1,0.7-2.6,0.9-3.6c0.4-2.2,1.1-4.4,1.4-5.6c-0.1-0.4-0.1-0.7,0-1.1c0.1-0.4,0.4-0.7,0.4-1
			c0.3-2-0.1-3.6,0.4-5.3c0.4,0,0.8,0.2,0.9-0.9c0.5-2.2-0.5-0.8-0.4-1.7c0.3-0.6,1.2-3,0.8-3.6c-0.1,0.8-0.2,1.8-0.7,1.5
			c0-2,0.8-1.4,0.9-3c-1.1-0.9,1-4.4,0.3-5.8c0,0.3-0.2,0.6-0.2,0c0.3-0.1,0.5-0.7,1-0.4c0-1.1,0.6-3.4,0.1-3.7
			c-0.1,3.6-1.3-1.6-0.5-2.2c0.4,0.1,0,1.4,0.3,1.6c0-2.8-0.2-4.8,0.3-7.9c-0.3-0.1-0.7,0-0.7-0.6c0.7-0.7-0.2-2.1,0.2-3.6
			c0.3,0.1,0.3,0.7,0.7,0.6c-0.8-2.9,1.1-1.8,0.5-4.2c-0.8-0.7-0.2,1.7-0.9,1c0-0.7-0.4-0.5-0.5-1.1c0.1-0.5-0.2-2.2,0-2.6
			C376.2,185,376.7,185.2,376.7,185.2"/>
		<path class="st0" d="M107.5,343.3c-0.8-0.5-1.1-0.3-1.8-0.7c-1.3-0.6-6.7-4.7-6.3-3.8c2.5,1.4,4.1,2.9,6.1,4.1
			C105.6,342.3,107.8,344.4,107.5,343.3"/>
		<path class="st0" d="M95.3,337.7c0.2-0.3,1.2,0.5,1.2,0c-2-1-2.8-2.4-4.1-1.9C93.6,336.2,94.5,336.8,95.3,337.7"/>
		<path class="st0" d="M70.1,52.8L66,56.5c-1.9,1.5-3.6,3.2-5,5.1c2.5-2.7,7.2-6.7,9.6-9C72.3,51.1,71.5,51.7,70.1,52.8"/>
		<path class="st0" d="M28.5,97.1c-0.6,0.9-0.9,2-0.9,3.1C28.1,99,29.1,97.4,28.5,97.1"/>
		<path class="st0" d="M376.7,172.6c0.4,0.7-0.2,5.5,0.8,6.3c0-0.6-0.1-1.5,0.1-1.6C377.1,176.5,377.4,170.8,376.7,172.6"/>
		<path class="st0" d="M9.5,166.2c-0.4,2.4-0.5,4.8-0.7,6.7c-0.1,1.2-0.6,4.6-0.1,3.1c0.4-3.4,0.7-5.6,0.9-7.8s0.6-4.4,1.2-7.8
			c0.1-0.6,0.1-1.2-0.3-1.1C10.2,161.3,9.8,163.8,9.5,166.2"/>
		<path class="st0" d="M76.7,47.3c-1.5,1.3-2.7,1.5-3,2.8C74.5,49.3,78,46.7,76.7,47.3"/>
		<path class="st0" d="M8.4,204.5c-0.1-2.3-0.3-5.8-0.5-8.7c-0.1-2.1,0.1-8.2-0.3-7.1C8,195.4,7.1,199.7,8.4,204.5"/>
		<path class="st0" d="M14.1,240.9c-0.6-1.9-1-5.1-1.9-6.4C12.9,236.5,13.3,239.9,14.1,240.9"/>
		<path class="st0" d="M88.9,333.9c-0.1-0.1-0.6-1-0.9-1.2c-0.3,0-0.7-0.2-0.9-0.4c-0.8-0.7-2.3-1.7-3.6-2.7
			c-0.9-0.6-2.3-2.9-3.3-2.3c0,0.8,1.5,1.7,2.3,2.7c0.6,0.7,0.3,0.9,1.2,1.7c1.4,1.2,2.8,2.3,4.3,3.3c1.3,0.8,2.6,1.8,3.6,2.9
			c1.4,0.3,2.7,0.7,4,1.3c-0.1,1.1-2-0.8-2.6-0.6c0.4,0.4,0.7,0.8,1,1.2c2.9,0.9,5.2,3.3,8.1,5c0.5,0.1,1,0.3,1.4,0.5
			c1.8,1.1,3.2,2.5,5,3.5c1.9,1.2,4,1.7,6,2.7c1.3,0.6,2.4,1.8,3.4,2.1c0.7,0.2,1-0.1,1.6,0.2c0.2,0.1-0.3,0.5,0.7,0.8
			c0.6,0.2,0.6-0.1,1.1,0c-0.1,0.3,0,0.5,0.7,0.8c2.9,1.4,8.5,3,10.2,2.9c-0.7-0.3-1.8-0.6-1.8-0.9c1,0.2,2,0.3,3.1,0.4
			c-1.1-0.5-5.2-1.8-4.4-2.4c-0.9,0-1.7-0.1-2.6-0.2c0.1-0.2-0.3-0.4-0.3-0.6c0.7-0.1,1.9,0.3,2.6,0.2c-0.7-0.2-1.4-0.5-2.1-0.8
			c-0.7-0.3-1.4-0.6-1.7-0.4c0.5,0.2,0.9,0.8,0.3,0.6c-1.9-0.4,0.3-1-1.6-1.4c-1.1-0.5-2.2-0.9-3.3-1.1c-0.1-0.3-0.4-0.7-1.2-1
			c-0.7,0.2-1.5,0.2-2.2,0c0.1,0,0.1-0.5,0.2-0.4c-0.6-0.2-4-0.8-5-2.2c0.6-0.1,2.2,0.9,2.6,0.5c-0.2,0.5,2.7,1.9,3.2,1.3
			c-1.3-0.4-2.4-1.2-3.3-2.1c-0.2,0.6-1,0.4-2.1-0.2l0.4-0.8c-1.4-0.6-2.7-1.3-3.8-2.2c-1,0.3-2.4,0.1-4.2-0.7
			c-2.3-1.9-4.6-3.1-7.7-5.4c-0.6,0.5-2-0.4-3-0.9c-0.4,0.2,0.3,0.9-0.4,0.6c-1.5-1.4,0.4-0.3,0.7-1c-1.3-0.4-2.4-1.1-3.4-2
			c-0.6-0.4-1.7-0.9-2.2-1.2"/>
		<path class="st0" d="M8.2,180.1c0,1.6-0.9,5.2-0.3,7.6C8.2,186.2,8.6,181.6,8.2,180.1"/>
		<path class="st0" d="M43.7,286.6c0.8,1.7,1.1,2.9,2.6,4.2c-0.3-0.6-0.3-1,0-1.2C45.6,288.5,44.7,287.5,43.7,286.6"/>
		<path class="st0" d="M10.4,224.4c0.3,2.1,0.4,6,1.8,6.4c-0.6-2.6-2-6.9-2.1-10.6C9.4,220.7,10.2,223,10.4,224.4"/>
		<path class="st0" d="M71.3,316.7c0.8,0.6,1.2,1.6,1.8,2.3c0.9,1,2,1.5,3.1,2.5c1.8,1.5,2.7,3.5,4.4,3.9c-0.9-0.7-1.4-1.2-1.2-1.6
			c-1.1-0.7-2.1-1.6-3-2.5c-1.2-1-2.8-2.2-3.1-2.5C73.6,319.1,71.7,315.8,71.3,316.7"/>
		<path class="st0" d="M61.2,307.3c-1.6-0.8-3.5-4.7-3.6-3.4c-1.6-1.4-1.9-3.5-3-3.3c0.4,1.2,2,2.7,3.5,4.2
			C59,305.9,60.7,308.3,61.2,307.3"/>
		<path class="st0" d="M51.9,296.5c-0.4,0.4-0.2,1.2,0.4,2c0.5,0.7,1.1,1.3,1.8,1.9c-0.3-0.5,0-0.6,0.2-0.8
			c-0.6-0.8-0.9-0.6-1.3-0.9C51.8,297.7,52.4,297.4,51.9,296.5"/>
		<path class="st0" d="M49.3,294.7c0.6,1.1,1.1,2,2,2.2C50.7,295.9,50.3,295,49.3,294.7"/>
	</g>
</g>
</svg>
